<svg width="1440" height="900" viewBox="0 0 1440 900" fill="none" xmlns="http://www.w3.org/2000/svg">
<rect x="160.923" y="-338.468" width="644.035" height="579.846" transform="rotate(30 160.923 -338.468)" fill="url(#paint0_linear)"/>
<rect x="-136.077" y="174" width="644.035" height="579.846" transform="rotate(30 -136.077 174)" fill="url(#paint1_linear)"/>
<rect x="917.923" y="-338.468" width="644.035" height="579.846" transform="rotate(30 917.923 -338.468)" fill="url(#paint2_linear)"/>
<rect x="619.923" y="179" width="644.035" height="579.846" transform="rotate(30 619.923 179)" fill="url(#paint3_linear)"/>
<rect x="323.923" y="695" width="644.035" height="579.846" transform="rotate(30 323.923 695)" fill="url(#paint4_linear)"/>
<rect x="1192.92" y="507" width="644.035" height="579.846" transform="rotate(30 1192.92 507)" fill="url(#paint5_linear)"/>
<rect x="1487.92" y="-8" width="644.035" height="579.846" transform="rotate(30 1487.92 -8)" fill="url(#paint6_linear)"/>
<defs>
<linearGradient id="paint0_linear" x1="482.94" y1="-338.468" x2="482.94" y2="241.377" gradientUnits="userSpaceOnUse">
<stop stop-color="#1C1C1C"/>
<stop offset="1" stop-color="#1E1E1E" stop-opacity="0"/>
</linearGradient>
<linearGradient id="paint1_linear" x1="185.94" y1="174" x2="185.94" y2="753.846" gradientUnits="userSpaceOnUse">
<stop stop-color="#1C1C1C"/>
<stop offset="1" stop-color="#1E1E1E" stop-opacity="0"/>
</linearGradient>
<linearGradient id="paint2_linear" x1="1239.94" y1="-338.468" x2="1239.94" y2="241.377" gradientUnits="userSpaceOnUse">
<stop stop-color="#1C1C1C"/>
<stop offset="1" stop-color="#1E1E1E" stop-opacity="0"/>
</linearGradient>
<linearGradient id="paint3_linear" x1="941.94" y1="179" x2="941.94" y2="758.846" gradientUnits="userSpaceOnUse">
<stop stop-color="#1C1C1C"/>
<stop offset="1" stop-color="#1E1E1E" stop-opacity="0"/>
</linearGradient>
<linearGradient id="paint4_linear" x1="645.94" y1="695" x2="645.94" y2="1274.85" gradientUnits="userSpaceOnUse">
<stop stop-color="#1C1C1C"/>
<stop offset="1" stop-color="#1E1E1E" stop-opacity="0"/>
</linearGradient>
<linearGradient id="paint5_linear" x1="1514.94" y1="507" x2="1514.94" y2="1086.85" gradientUnits="userSpaceOnUse">
<stop stop-color="#1C1C1C"/>
<stop offset="1" stop-color="#1E1E1E" stop-opacity="0"/>
</linearGradient>
<linearGradient id="paint6_linear" x1="1809.94" y1="-8" x2="1809.94" y2="571.846" gradientUnits="userSpaceOnUse">
<stop stop-color="#1C1C1C"/>
<stop offset="1" stop-color="#1E1E1E" stop-opacity="0"/>
</linearGradient>
</defs>
</svg>
